<svg xmlns="http://www.w3.org/2000/svg" xmlns:xlink="http://www.w3.org/1999/xlink" width="500" zoomAndPan="magnify" viewBox="0 0 375 374.999991" height="500" preserveAspectRatio="xMidYMid meet" version="1.0"><defs><clipPath id="a1941efa74"><path d="M 281.09375 14.21875 L 366.59375 14.21875 L 366.59375 99.71875 L 281.09375 99.71875 Z M 281.09375 14.21875 " clip-rule="nonzero"/></clipPath></defs><path fill="#000000" d="M 240.738281 333.230469 C 260.957031 352.914062 295.582031 360.335938 325.128906 344.417969 C 347.207031 332.5 366.742188 308.03125 364.347656 273.355469 C 362.738281 249.863281 322.152344 182.859375 299.199219 145.203125 C 281.859375 116.730469 267.402344 85.863281 242.933594 62.570312 C 192.09375 14.21875 129.191406 42.351562 108.433594 94.800781 C 125.871094 85.375 138.859375 79.078125 169.871094 84.398438 C 226.476562 94.117188 255.390625 171.234375 281.714844 217.144531 C 288.109375 228.277344 294.363281 239.21875 301.152344 250.839844 C 305.398438 258.117188 310.234375 266.664062 312.238281 274.820312 C 317.757812 297.335938 295.582031 309.398438 276.585938 293.429688 C 251.675781 272.476562 226.527344 214.945312 214.511719 193.554688 C 194.976562 158.683594 171.484375 122.492188 121.132812 130.992188 C 70.828125 139.539062 50.609375 191.992188 23.355469 240.390625 C -8.242188 296.40625 34.882812 360.777344 97.984375 351.9375 C 116.542969 349.347656 129.335938 341.046875 139.300781 330.15625 C 146.089844 322.78125 160.398438 301.632812 164.109375 292.109375 L 135.441406 242.539062 C 134.953125 242.980469 134.710938 243.371094 133.242188 245.128906 L 114.195312 277.457031 C 92.609375 314.378906 62.136719 305.296875 64.136719 280.488281 C 65.554688 262.125 83.527344 237.363281 89.09375 227.886719 C 105.550781 199.757812 130.460938 154.386719 160.105469 200.832031 C 165.527344 209.378906 171.484375 220.757812 175.488281 227.59375 C 179.347656 234.140625 182.375 239.65625 186.136719 246.25 C 203.621094 273.601562 218.320312 311.402344 240.738281 333.230469 Z M 240.738281 333.230469 " fill-opacity="1" fill-rule="evenodd"/><g clip-path="url(#a1941efa74)"><path fill="#8c52ff" d="M 366.738281 57.042969 C 334.621094 62.953125 329.828125 67.746094 323.917969 99.863281 C 318.003906 67.746094 313.210938 62.953125 281.09375 57.042969 C 313.210938 51.128906 318.003906 46.335938 323.917969 14.21875 C 329.828125 46.335938 334.621094 51.128906 366.738281 57.042969 Z M 366.738281 57.042969 " fill-opacity="1" fill-rule="nonzero"/></g></svg>